<svg xmlns="http://www.w3.org/2000/svg" width="39.391" height="46.017" viewBox="0 0 39.391 46.017"><path fill="currentColor" d="M26.628 25.655c-1.968 3.232-4.41 4.641-5.992 4.595-.768-.021-.955-.368-1.025-.5-.372-.695-.436-2.774 1.686-6.165a18.375 18.375 0 0 1 7.787-6.785 19.029 19.029 0 0 1-2.456 8.851m7.4-17.226A13.232 13.232 0 0 0 26.025.96a16.96 16.96 0 0 0-15.536 2.222C5.71 6.6.013 14.237.013 31.251L0 46.017h6.465l.013-14.763c0-11.133 2.759-19.233 7.768-22.811a10.567 10.567 0 0 1 9.682-1.368 6.668 6.668 0 0 1 3.826 3.218 25.082 25.082 0 0 0-11.937 9.862c-4.07 6.5-2.94 10.716-1.9 12.649a7.423 7.423 0 0 0 6.545 3.907c4.319.108 8.686-2.76 11.691-7.7a25.61 25.61 0 0 0 3.357-14.267 29.262 29.262 0 0 1 3.881-.406V7.846a29.587 29.587 0 0 0-5.359.582" data-name="Tracé 5721"/></svg>