<svg xmlns="http://www.w3.org/2000/svg" width="107.21" height="30.963" viewBox="0 0 107.21 30.963"><path fill="currentColor" d="M57.822 7.776h3.355v9.394a3.551 3.551 0 0 0 3.691 3.858 4.274 4.274 0 0 0 4.361-4.529V7.776h3.355v16.1h-3.355v-3.352a5.456 5.456 0 0 1-5.032 3.691c-3.69 0-6.374-2.65-6.374-7.045Z" data-name="Tracé 1"/><path fill="currentColor" d="m103.52 7.776-4.817 12.748-5.144-12.748h-3.7l6.55 16.1h.9l-.671 1.678a2.9 2.9 0 0 1-2.845 2.013v3.338c.158.01.321.016.5.016 2.684 0 4.529-1.812 5.871-5.2l7.045-17.949Z" data-name="Tracé 2"/><path fill="currentColor" d="m31.009 16.163-4.7.839c-1.711.3-2.516 1.141-2.516 2.181 0 1.175.973 2.181 2.684 2.181a4.55 4.55 0 0 0 4.529-4.7Zm0 4.361a5.471 5.471 0 0 1-5.2 3.691c-3.221 0-5.368-2.181-5.368-4.7 0-2.684 1.845-4.529 4.7-5.032l5.868-1.003a3.078 3.078 0 0 0-3.355-3.02 5.213 5.213 0 0 0-3.053 1.107 5.775 5.775 0 0 0-1.14 1.073l-2.181-2.181a6.923 6.923 0 0 1 1.611-1.509 7.947 7.947 0 0 1 4.764-1.51c4.026 0 6.71 2.684 6.71 6.206V23.88h-3.356Z" data-name="Tracé 3"/><path fill="currentColor" d="M50.389 15.989c0 3.174-1.938 5.2-4.876 5.2-2.72 0-4.533-2.126-4.533-5.463 0-3.141 1.876-5.2 4.6-5.2a4.455 4.455 0 0 1 4.814 4.678Zm.083-8.214v3.355A5.227 5.227 0 0 0 45.2 7.44c-4.4 0-7.813 3.523-7.813 8.387s3.415 8.387 7.813 8.387a5.431 5.431 0 0 0 5.272-3.691v10.4h3.355V7.78Z" data-name="Tracé 4"/><path fill="currentColor" d="m86.152 16.163-4.7.839c-1.711.3-2.516 1.141-2.516 2.181 0 1.175.973 2.181 2.684 2.181a4.55 4.55 0 0 0 4.529-4.7Zm0 4.361a5.471 5.471 0 0 1-5.2 3.691c-3.221 0-5.368-2.181-5.368-4.7 0-2.684 1.845-4.529 4.7-5.032l5.871-1.007a3.078 3.078 0 0 0-3.355-3.02 5.213 5.213 0 0 0-3.053 1.107 5.775 5.775 0 0 0-1.141 1.074l-2.181-2.181a6.922 6.922 0 0 1 1.611-1.506A7.947 7.947 0 0 1 82.8 7.44c4.026 0 6.71 2.684 6.71 6.206V23.88h-3.355Z" data-name="Tracé 5"/><path fill="currentColor" d="M59.367 28.183a.863.863 0 0 0 .3-.513.559.559 0 0 0-1.109 0 .865.865 0 0 0 .256.513 2.289 2.289 0 0 0 .264.256 2.137 2.137 0 0 0 .291-.256m-.36.873a2.057 2.057 0 0 0-.333.25.906.906 0 0 0-.326.617c0 .326.27.589.763.589a1.472 1.472 0 0 0 .665-.153.959.959 0 0 0 .228-.159Zm1.268.762a1.247 1.247 0 0 0 .124-.256 1.927 1.927 0 0 0 .132-.679h.45a2.192 2.192 0 0 1-.208.929 2.15 2.15 0 0 1-.208.354 1.255 1.255 0 0 0 .153.173.588.588 0 0 0 .367.173.961.961 0 0 0 .111-.014l.062-.021v.45l-.076.021a1.162 1.162 0 0 1-.166.014.821.821 0 0 1-.534-.222.905.905 0 0 1-.194-.229 1.139 1.139 0 0 1-.305.229 1.758 1.758 0 0 1-.873.222 1.125 1.125 0 0 1-1.247-1.04 1.2 1.2 0 0 1 .429-.873 1.816 1.816 0 0 1 .437-.3 3.567 3.567 0 0 1-.312-.354 1.334 1.334 0 0 1-.312-.721 1.009 1.009 0 0 1 2.01-.035 1.291 1.291 0 0 1-.381.8 3.573 3.573 0 0 1-.381.34Z" data-name="Tracé 6"/><path fill="currentColor" d="m65.598 29.195-1.143.208c-.416.077-.624.277-.624.589 0 .277.243.52.693.52a1.039 1.039 0 0 0 1.074-1.109Zm0 1.247a1.18 1.18 0 0 1-.263.263 1.374 1.374 0 0 1-.811.256 1.1 1.1 0 0 1-1.178-.97c0-.555.34-.9.97-1l1.282-.208a.793.793 0 0 0-.832-.832 1.142 1.142 0 0 0-.686.242 2.088 2.088 0 0 0-.25.242l-.312-.312a1.538 1.538 0 0 1 .326-.312 1.505 1.505 0 0 1 .922-.312 1.266 1.266 0 0 1 1.317 1.283v2.113h-.485Z" data-name="Tracé 7"/><path fill="currentColor" d="M67.363 30.027a1.225 1.225 0 0 0 .222.242.957.957 0 0 0 .645.243c.492 0 .728-.243.728-.554 0-.762-1.8-.381-1.8-1.525a1.026 1.026 0 0 1 1.109-.936 1.515 1.515 0 0 1 .8.229 1.254 1.254 0 0 1 .277.222l-.347.346a.866.866 0 0 0-.18-.173.988.988 0 0 0-.548-.173.561.561 0 0 0-.624.485c0 .728 1.8.347 1.8 1.525a1.073 1.073 0 0 1-1.212 1 1.548 1.548 0 0 1-.922-.291 1.091 1.091 0 0 1-.291-.3Z" data-name="Tracé 8"/><path fill="currentColor" d="M70.538 30.027a1.234 1.234 0 0 0 .222.242.959.959 0 0 0 .645.243c.492 0 .728-.243.728-.554 0-.762-1.8-.381-1.8-1.525a1.026 1.026 0 0 1 1.109-.936 1.512 1.512 0 0 1 .8.229 1.247 1.247 0 0 1 .277.222l-.347.346a.866.866 0 0 0-.18-.173.988.988 0 0 0-.548-.173.561.561 0 0 0-.624.485c0 .728 1.8.347 1.8 1.525a1.073 1.073 0 0 1-1.212 1 1.548 1.548 0 0 1-.922-.291 1.091 1.091 0 0 1-.291-.3Z" data-name="Tracé 9"/><path fill="currentColor" d="M76.309 29.23a1.215 1.215 0 1 0-1.212 1.282 1.244 1.244 0 0 0 1.212-1.282m-2.911 0a1.7 1.7 0 1 1 1.7 1.733 1.709 1.709 0 0 1-1.7-1.733" data-name="Tracé 10"/><path fill="currentColor" d="M80.659 30.269a1.937 1.937 0 0 1-.367.347 1.735 1.735 0 0 1-1.019.347 1.734 1.734 0 0 1 0-3.466 1.674 1.674 0 0 1 1 .333 2.265 2.265 0 0 1 .354.326l-.346.347a1.6 1.6 0 0 0-.257-.277 1.169 1.169 0 0 0-.748-.277 1.287 1.287 0 0 0 0 2.564 1.283 1.283 0 0 0 .769-.277 1.441 1.441 0 0 0 .27-.277Z" data-name="Tracé 11"/><path fill="currentColor" d="M81.566 27.567h.485v3.327h-.485Zm.243-1.421a.312.312 0 1 1-.312.312.311.311 0 0 1 .312-.312" data-name="Tracé 12"/><path fill="currentColor" d="M85.046 26.042h.52l-.659.936h-.381Zm.763 2.945a1.133 1.133 0 0 0-1.109-1.039 1.19 1.19 0 0 0-1.144 1.039Zm.312 1.282a1.685 1.685 0 0 1-.354.347 1.747 1.747 0 0 1-1.033.347 1.735 1.735 0 0 1-.035-3.466 1.582 1.582 0 0 1 1.594 1.663 1.06 1.06 0 0 1-.021.181l-.014.069-2.7-.007a1.2 1.2 0 0 0 1.178 1.109 1.3 1.3 0 0 0 .8-.277 1.489 1.489 0 0 0 .277-.277Z" data-name="Tracé 13"/><path fill="currentColor" d="M87.349 30.027a1.217 1.217 0 0 0 .222.242.956.956 0 0 0 .644.243c.492 0 .728-.243.728-.554 0-.762-1.8-.381-1.8-1.525a1.026 1.026 0 0 1 1.109-.936 1.512 1.512 0 0 1 .8.229 1.239 1.239 0 0 1 .277.222l-.346.346a.86.86 0 0 0-.18-.173.988.988 0 0 0-.548-.173.561.561 0 0 0-.623.485c0 .728 1.8.347 1.8 1.525a1.073 1.073 0 0 1-1.213 1 1.547 1.547 0 0 1-.922-.291 1.093 1.093 0 0 1-.291-.3Z" data-name="Tracé 14"/><path fill="currentColor" d="M13.818 13.313c-1.018 1.677-2.288 2.409-3.11 2.387-.4-.011-.5-.191-.532-.259-.193-.36-.226-1.44.875-3.2a9.535 9.535 0 0 1 4.042-3.521 9.875 9.875 0 0 1-1.275 4.593m3.842-8.939A6.866 6.866 0 0 0 13.505.5a8.8 8.8 0 0 0-8.062 1.151C2.963 3.423.007 7.388.007 16.217L0 23.88h3.355l.007-7.661c0-5.777 1.432-9.981 4.031-11.837a5.483 5.483 0 0 1 5.024-.71 3.46 3.46 0 0 1 1.983 1.67 13.015 13.015 0 0 0-6.194 5.118c-2.106 3.374-1.524 5.56-.986 6.563a3.852 3.852 0 0 0 3.4 2.028c2.241.056 4.507-1.432 6.067-3.993a13.29 13.29 0 0 0 1.743-7.406 15.185 15.185 0 0 1 2.014-.211V4.072a15.353 15.353 0 0 0-2.781.3" data-name="Tracé 15"/><path fill="currentColor" d="M57.822 7.776h3.355v9.394a3.551 3.551 0 0 0 3.691 3.858 4.274 4.274 0 0 0 4.361-4.529V7.776h3.355v16.1h-3.355v-3.352a5.456 5.456 0 0 1-5.032 3.691c-3.69 0-6.374-2.65-6.374-7.045Z" data-name="Tracé 20"/><path fill="currentColor" d="m103.52 7.776-4.817 12.748-5.144-12.748h-3.7l6.55 16.1h.9l-.671 1.678a2.9 2.9 0 0 1-2.845 2.013v3.338c.158.01.321.016.5.016 2.684 0 4.529-1.812 5.871-5.2l7.045-17.949Z" data-name="Tracé 21"/><path fill="currentColor" d="m31.009 16.163-4.7.839c-1.711.3-2.516 1.141-2.516 2.181 0 1.175.973 2.181 2.684 2.181a4.55 4.55 0 0 0 4.529-4.7Zm0 4.361a5.471 5.471 0 0 1-5.2 3.691c-3.221 0-5.368-2.181-5.368-4.7 0-2.684 1.845-4.529 4.7-5.032l5.868-1.003a3.078 3.078 0 0 0-3.355-3.02 5.213 5.213 0 0 0-3.053 1.107 5.775 5.775 0 0 0-1.14 1.073l-2.181-2.181a6.923 6.923 0 0 1 1.611-1.509 7.947 7.947 0 0 1 4.764-1.51c4.026 0 6.71 2.684 6.71 6.206V23.88h-3.356Z" data-name="Tracé 22"/><path fill="currentColor" d="M50.389 15.989c0 3.174-1.938 5.2-4.876 5.2-2.72 0-4.533-2.126-4.533-5.463 0-3.141 1.876-5.2 4.6-5.2a4.455 4.455 0 0 1 4.814 4.678Zm.083-8.214v3.355A5.227 5.227 0 0 0 45.2 7.44c-4.4 0-7.813 3.523-7.813 8.387s3.415 8.387 7.813 8.387a5.431 5.431 0 0 0 5.272-3.691v10.4h3.355V7.78Z" data-name="Tracé 23"/><path fill="currentColor" d="m86.152 16.163-4.7.839c-1.711.3-2.516 1.141-2.516 2.181 0 1.175.973 2.181 2.684 2.181a4.55 4.55 0 0 0 4.529-4.7Zm0 4.361a5.471 5.471 0 0 1-5.2 3.691c-3.221 0-5.368-2.181-5.368-4.7 0-2.684 1.845-4.529 4.7-5.032l5.871-1.007a3.078 3.078 0 0 0-3.355-3.02 5.213 5.213 0 0 0-3.053 1.107 5.775 5.775 0 0 0-1.141 1.074l-2.181-2.181a6.922 6.922 0 0 1 1.611-1.506A7.947 7.947 0 0 1 82.8 7.44c4.026 0 6.71 2.684 6.71 6.206V23.88h-3.355Z" data-name="Tracé 24"/><path fill="currentColor" d="M59.367 28.183a.863.863 0 0 0 .3-.513.559.559 0 0 0-1.109 0 .865.865 0 0 0 .256.513 2.289 2.289 0 0 0 .264.256 2.137 2.137 0 0 0 .291-.256m-.36.873a2.057 2.057 0 0 0-.333.25.906.906 0 0 0-.326.617c0 .326.27.589.763.589a1.472 1.472 0 0 0 .665-.153.959.959 0 0 0 .228-.159Zm1.268.762a1.247 1.247 0 0 0 .124-.256 1.927 1.927 0 0 0 .132-.679h.45a2.192 2.192 0 0 1-.208.929 2.15 2.15 0 0 1-.208.354 1.255 1.255 0 0 0 .153.173.588.588 0 0 0 .367.173.961.961 0 0 0 .111-.014l.062-.021v.45l-.076.021a1.162 1.162 0 0 1-.166.014.821.821 0 0 1-.534-.222.905.905 0 0 1-.194-.229 1.139 1.139 0 0 1-.305.229 1.758 1.758 0 0 1-.873.222 1.125 1.125 0 0 1-1.247-1.04 1.2 1.2 0 0 1 .429-.873 1.816 1.816 0 0 1 .437-.3 3.567 3.567 0 0 1-.312-.354 1.334 1.334 0 0 1-.312-.721 1.009 1.009 0 0 1 2.01-.035 1.291 1.291 0 0 1-.381.8 3.573 3.573 0 0 1-.381.34Z" data-name="Tracé 25"/><path fill="currentColor" d="m65.598 29.195-1.143.208c-.416.077-.624.277-.624.589 0 .277.243.52.693.52a1.039 1.039 0 0 0 1.074-1.109Zm0 1.247a1.18 1.18 0 0 1-.263.263 1.374 1.374 0 0 1-.811.256 1.1 1.1 0 0 1-1.178-.97c0-.555.34-.9.97-1l1.282-.208a.793.793 0 0 0-.832-.832 1.142 1.142 0 0 0-.686.242 2.088 2.088 0 0 0-.25.242l-.312-.312a1.538 1.538 0 0 1 .326-.312 1.505 1.505 0 0 1 .922-.312 1.266 1.266 0 0 1 1.317 1.283v2.113h-.485Z" data-name="Tracé 26"/><path fill="currentColor" d="M67.363 30.027a1.225 1.225 0 0 0 .222.242.957.957 0 0 0 .645.243c.492 0 .728-.243.728-.554 0-.762-1.8-.381-1.8-1.525a1.026 1.026 0 0 1 1.109-.936 1.515 1.515 0 0 1 .8.229 1.254 1.254 0 0 1 .277.222l-.347.346a.866.866 0 0 0-.18-.173.988.988 0 0 0-.548-.173.561.561 0 0 0-.624.485c0 .728 1.8.347 1.8 1.525a1.073 1.073 0 0 1-1.212 1 1.548 1.548 0 0 1-.922-.291 1.091 1.091 0 0 1-.291-.3Z" data-name="Tracé 27"/><path fill="currentColor" d="M70.538 30.027a1.234 1.234 0 0 0 .222.242.959.959 0 0 0 .645.243c.492 0 .728-.243.728-.554 0-.762-1.8-.381-1.8-1.525a1.026 1.026 0 0 1 1.109-.936 1.512 1.512 0 0 1 .8.229 1.247 1.247 0 0 1 .277.222l-.347.346a.866.866 0 0 0-.18-.173.988.988 0 0 0-.548-.173.561.561 0 0 0-.624.485c0 .728 1.8.347 1.8 1.525a1.073 1.073 0 0 1-1.212 1 1.548 1.548 0 0 1-.922-.291 1.091 1.091 0 0 1-.291-.3Z" data-name="Tracé 28"/><path fill="currentColor" d="M76.309 29.23a1.215 1.215 0 1 0-1.212 1.282 1.244 1.244 0 0 0 1.212-1.282m-2.911 0a1.7 1.7 0 1 1 1.7 1.733 1.709 1.709 0 0 1-1.7-1.733" data-name="Tracé 29"/><path fill="currentColor" d="M80.659 30.269a1.937 1.937 0 0 1-.367.347 1.735 1.735 0 0 1-1.019.347 1.734 1.734 0 0 1 0-3.466 1.674 1.674 0 0 1 1 .333 2.265 2.265 0 0 1 .354.326l-.346.347a1.6 1.6 0 0 0-.257-.277 1.169 1.169 0 0 0-.748-.277 1.287 1.287 0 0 0 0 2.564 1.283 1.283 0 0 0 .769-.277 1.441 1.441 0 0 0 .27-.277Z" data-name="Tracé 30"/><path fill="currentColor" d="M81.566 27.567h.485v3.327h-.485Zm.243-1.421a.312.312 0 1 1-.312.312.311.311 0 0 1 .312-.312" data-name="Tracé 31"/><path fill="currentColor" d="M85.046 26.042h.52l-.659.936h-.381Zm.763 2.945a1.133 1.133 0 0 0-1.109-1.039 1.19 1.19 0 0 0-1.144 1.039Zm.312 1.282a1.685 1.685 0 0 1-.354.347 1.747 1.747 0 0 1-1.033.347 1.735 1.735 0 0 1-.035-3.466 1.582 1.582 0 0 1 1.594 1.663 1.06 1.06 0 0 1-.021.181l-.014.069-2.7-.007a1.2 1.2 0 0 0 1.178 1.109 1.3 1.3 0 0 0 .8-.277 1.489 1.489 0 0 0 .277-.277Z" data-name="Tracé 32"/><path fill="currentColor" d="M87.349 30.027a1.217 1.217 0 0 0 .222.242.956.956 0 0 0 .644.243c.492 0 .728-.243.728-.554 0-.762-1.8-.381-1.8-1.525a1.026 1.026 0 0 1 1.109-.936 1.512 1.512 0 0 1 .8.229 1.239 1.239 0 0 1 .277.222l-.346.346a.86.86 0 0 0-.18-.173.988.988 0 0 0-.548-.173.561.561 0 0 0-.623.485c0 .728 1.8.347 1.8 1.525a1.073 1.073 0 0 1-1.213 1 1.547 1.547 0 0 1-.922-.291 1.093 1.093 0 0 1-.291-.3Z" data-name="Tracé 33"/><path fill="currentColor" d="M13.818 13.313c-1.018 1.677-2.288 2.409-3.11 2.387-.4-.011-.5-.191-.532-.259-.193-.36-.226-1.44.875-3.2a9.535 9.535 0 0 1 4.042-3.521 9.875 9.875 0 0 1-1.275 4.593m3.842-8.939A6.866 6.866 0 0 0 13.505.5a8.8 8.8 0 0 0-8.062 1.151C2.963 3.423.007 7.388.007 16.217L0 23.88h3.355l.007-7.661c0-5.777 1.432-9.981 4.031-11.837a5.483 5.483 0 0 1 5.024-.71 3.46 3.46 0 0 1 1.983 1.67 13.015 13.015 0 0 0-6.194 5.118c-2.106 3.374-1.524 5.56-.986 6.563a3.852 3.852 0 0 0 3.4 2.028c2.241.056 4.507-1.432 6.067-3.993a13.29 13.29 0 0 0 1.743-7.406 15.185 15.185 0 0 1 2.014-.211V4.072a15.353 15.353 0 0 0-2.781.3" data-name="Tracé 34"/></svg>