<svg xmlns="http://www.w3.org/2000/svg" fill="currentColor" width="14.432" height="11.726" viewBox="0 0 14.432 11.726">
  <path d="M3.608 6.404a.541.541 0 0 0 0 1.082h1.083a.541.541 0 0 0 0-1.082Z" data-name="Tracé 5703"/>
  <path d="M9.2 6.945a.541.541 0 0 1 .541-.541h1.082a.541.541 0 1 1 0 1.082H9.741a.541.541 0 0 1-.541-.541Z" data-name="Tracé 5704"/>
  <path fill-rule="evenodd" d="M4.113 0a1.624 1.624 0 0 0-1.521 1.05l-.686 1.836H.541a.541.541 0 1 0 0 1.082H1.5l-.031.082A1.624 1.624 0 0 0 .36 5.59v5.051a1.0825 1.0825 0 0 0 2.165 0v-.722h9.381v.722a1.0825 1.0825 0 1 0 2.165 0V5.592a1.624 1.624 0 0 0-1.107-1.542l-.031-.084h.959a.541.541 0 1 0 0-1.082h-1.365L11.84 1.05A1.624 1.624 0 0 0 10.32 0Zm8.876 8.84V5.592a.541.541 0 0 0-.541-.541H1.984a.541.541 0 0 0-.541.541V8.84Zm-1.213-4.871-.95-2.535a.541.541 0 0 0-.507-.351H4.113a.541.541 0 0 0-.507.351l-.95 2.535Z" data-name="Tracé 5705"/>
</svg>