<svg width="80" height="80" viewBox="0 0 80 80" fill="none" xmlns="http://www.w3.org/2000/svg"><path fill-rule="evenodd" clip-rule="evenodd" d="M77.9996 60.45V18.6747L78 18.5949C77.9996 14.9525 75.0467 12 71.4044 12H8.59646C4.99484 12 2.06768 14.8869 2.00232 18.4727C2.0008 18.5113 2 18.5501 2 18.5891V60.45C2 65.1719 5.82795 69 10.55 69H69.4497C74.1715 69 77.9996 65.1719 77.9996 60.45ZM7.69997 57.5913V26.0106L35.1108 45.125C38.0489 47.1739 41.9534 47.1739 44.8915 45.125L72.2997 26.0124V57.5977L57.908 42.9974L53.1648 46.3049L69.8844 63.2669C69.7426 63.2886 69.5975 63.3 69.4497 63.3H10.55C10.4003 63.3 10.2533 63.2886 10.1099 63.2662L26.832 46.3015L22.0888 42.9936L7.69997 57.5913ZM72.2997 18.5891V18.5687C72.2856 18.0865 71.89 17.7 71.4044 17.7H8.59646C8.1019 17.7 7.70104 18.101 7.70119 18.5956C7.7013 18.8882 7.84437 19.1623 8.08438 19.3296L38.3708 40.4495C39.3504 41.1323 40.6519 41.1323 41.6311 40.4495L71.9166 19.3304C72.1492 19.1684 72.2905 18.9066 72.2997 18.6248V18.5891Z" fill="currentColor"/></svg>