<svg xmlns="http://www.w3.org/2000/svg" width="14.028" height="11.322"><path fill="currentColor" d="M1.052 8.943V2.586l5.029 3.507a4.839 4.839 0 0 1 .619-.848L1.123 1.353a.165.165 0 0 1 .095-.3h11.593a.165.165 0 0 1 .165.16v.01a.165.165 0 0 1-.071.13L9.474 3.746a4.873 4.873 0 0 1 1.782.04l1.72-1.2v1.935a4.85 4.85 0 0 1 1.052.979V1.217A1.217 1.217 0 0 0 12.811 0H1.218A1.217 1.217 0 0 0 0 1.195v7.748a1.578 1.578 0 0 0 1.578 1.578h4.3a4.784 4.784 0 0 1-.344-1.052H1.578a.526.526 0 0 1-.526-.526Z"/><path fill="currentColor" d="m11.278 6.738-3.686 3.686a.526.526 0 1 0 .744.744l3.688-3.688v2.266a.526.526 0 1 0 1.052 0v-3.52a.526.526 0 0 0-.57-.539h-3.49a.526.526 0 0 0 0 1.052Z" /></svg>