<svg xmlns="http://www.w3.org/2000/svg" fill="currentColor" width="14.028" height="11.322" viewBox="0 0 14.028 11.322"><path d="M3.052,13.443V7.086l5.029,3.507A4.839,4.839,0,0,1,8.7,9.745L3.123,5.853a.165.165,0,0,1,.095-.3H14.811a.165.165,0,0,1,.165.16v.01a.165.165,0,0,1-.071.13L11.474,8.246a4.873,4.873,0,0,1,1.782.04l1.72-1.2V9.021A4.85,4.85,0,0,1,16.028,10V5.717A1.217,1.217,0,0,0,14.811,4.5H3.218A1.217,1.217,0,0,0,2,5.695q0,.011,0,.021v7.727a1.578,1.578,0,0,0,1.578,1.578h4.3a4.784,4.784,0,0,1-.344-1.052H3.578A.526.526,0,0,1,3.052,13.443Z"/><path d="M16.444,13.658l-3.686,3.686a.526.526,0,1,0,.744.744L17.19,14.4v2.266a.526.526,0,1,0,1.052,0v-3.52a.526.526,0,0,0-.57-.539h-3.49a.526.526,0,0,0,0,1.052Z"/></svg>