<svg xmlns="http://www.w3.org/2000/svg" width="14.727" height="14.724" viewBox="0 0 14.727 14.724"><path fill="currentColor" fill-rule="evenodd" d="M7.358 14.724H1.893A1.893 1.893 0 0 1 0 12.831V5.996a1.893 1.893 0 0 1 .757-1.515l5.47-4.1a1.893 1.893 0 0 1 2.272 0l5.47 4.1a1.893 1.893 0 0 1 .757 1.515v6.835a1.893 1.893 0 0 1-1.893 1.893H7.358ZM6.985 1.389a.631.631 0 0 1 .757 0l5.47 4.1a.631.631 0 0 1 .252.5v6.835a.631.631 0 0 1-.631.631H7.995v-2.517a.631.631 0 1 0-1.262 0v2.525h-4.84a.631.631 0 0 1-.631-.631V5.996a.631.631 0 0 1 .252-.5Z"/></svg>