<svg xmlns="http://www.w3.org/2000/svg" width="11.398" height="13.018" fill="currentColor" viewBox="0 0 11.398 13.018"><path d="M5.698 0a2.977 2.977 0 1 0 2.977 2.977A2.977 2.977 0 0 0 5.698 0ZM3.749 2.977a1.949 1.949 0 1 1 1.949 1.949 1.949 1.949 0 0 1-1.949-1.949Z"/><path d="M3.593 6.981a3.6 3.6 0 0 0-3.6 3.6v.9a1.542 1.542 0 0 0 1.542 1.542H9.85a1.542 1.542 0 0 0 1.543-1.547v-.9a3.6 3.6 0 0 0-3.6-3.6Zm-2.569 3.6a2.569 2.569 0 0 1 2.569-2.572h4.2a2.569 2.569 0 0 1 2.569 2.569v.9a.514.514 0 0 1-.514.514H1.542a.514.514 0 0 1-.514-.514Z"/></svg>