<svg xmlns="http://www.w3.org/2000/svg" width="19" height="19" fill="currentColor" viewBox="0 0 19 19">
  <path d="M5.945 1.515a2.584 2.584 0 0 0-4.18-.758L.7 1.825a2.329 2.329 0 0 0-.661 2.056 18.636 18.636 0 0 0 5.184 9.9 18.635 18.635 0 0 0 9.9 5.184 2.329 2.329 0 0 0 2.056-.661l1.068-1.068a2.584 2.584 0 0 0-.758-4.18l-3.567-1.621a2.584 2.584 0 0 0-2.648.306 1.8 1.8 0 0 0-.494.617l-1.436 2.8a17.374 17.374 0 0 1-5.5-5.5l2.8-1.436a1.8 1.8 0 0 0 .617-.494 2.585 2.585 0 0 0 .306-2.648Zm9.44 15.973a17.148 17.148 0 0 1-4.737-1.588l1.464-2.855a.626.626 0 0 1 .054-.09.135.135 0 0 1 .021-.024A1.085 1.085 0 0 1 13.3 12.8l3.567 1.621a1.084 1.084 0 0 1 .318 1.754l-1.068 1.068a.83.83 0 0 1-.732.245ZM5.959 6.889 3.1 8.352a17.152 17.152 0 0 1-1.588-4.737.83.83 0 0 1 .246-.729l1.068-1.068a1.084 1.084 0 0 1 1.754.318L6.2 5.7a1.084 1.084 0 0 1-.128 1.111.134.134 0 0 1-.024.021.625.625 0 0 1-.089.057Z"/>
  <path d="M16.664 8.118a5.783 5.783 0 0 0-5.783-5.783.75.75 0 1 1 0-1.5 7.283 7.283 0 0 1 7.283 7.283.75.75 0 0 1-1.5 0Z"/>
  <path d="M13.484 8.2A2.846 2.846 0 0 0 10.8 5.516a.75103945.75103945 0 1 1 .079-1.5 4.346 4.346 0 0 1 4.106 4.106.7510659.7510659 0 0 1-1.5.08Z"/>
</svg>